<?xml version="1.0" encoding="UTF-8"?>
<svg id="Layer_2" data-name="Layer 2" xmlns="http://www.w3.org/2000/svg" viewBox="0 0 470.74 266.78">
  <defs>
    <style>
      .cls-1 {
        fill: #7e909e;
      }
    </style>
  </defs>
  <g id="Layer_1-2" data-name="Layer 1">
    <path class="cls-1" d="m17.74,78.15v155.71h118.79V78.15H17.74Zm117.2,154.13H19.33v-112.2h115.61v112.2Zm0-113.78H19.33v-38.76h115.61v38.76Z"/>
    <polygon class="cls-1" points="82.49 91.53 82.49 94.2 124.92 94.2 124.92 91.53 123.33 91.53 123.33 92.62 84.07 92.62 84.07 91.53 82.49 91.53"/>
    <polygon class="cls-1" points="82.49 100.36 82.49 103.04 115.64 103.04 115.64 100.36 114.06 100.36 114.06 101.45 84.07 101.45 84.07 100.36 82.49 100.36"/>
    <path class="cls-1" d="m50.58,97.75l-10.47-10.49-10.47,10.49,10.47,10.49,10.47-10.49Zm-10.47-8.24l8.23,8.24-8.23,8.24-8.23-8.24,8.23-8.24Z"/>
    <path class="cls-1" d="m367.94,240.22v-106l-58.38.1v106.01l58.38-.11Zm-56.8-104.32l55.21-.1v24.08h-55.21v-23.98Zm0,25.57h55.21v77.17h-.5l-54.71.1v-77.27Z"/>
    <path class="cls-1" d="m322.71,172.74c-4.48,0-8.13,3.65-8.13,8.13s3.65,8.13,8.13,8.13,8.13-3.65,8.13-8.13-3.65-8.13-8.13-8.13Zm0,14.67c-3.61,0-6.54-2.94-6.54-6.54s2.94-6.54,6.54-6.54,6.54,2.94,6.54,6.54-2.94,6.54-6.54,6.54Z"/>
    <polygon class="cls-1" points="336.33 174.32 336.33 177.01 357.33 177.01 357.33 174.32 355.74 174.32 355.74 175.42 337.92 175.42 337.92 174.32 336.33 174.32"/>
    <rect class="cls-1" x="337.63" y="186.67" width="24.12" height="1.59"/>
    <rect class="cls-1" x="337.63" y="217.67" width="24.12" height="1.59"/>
    <path class="cls-1" d="m322.71,203.46c-4.48,0-8.13,3.65-8.13,8.13s3.65,8.13,8.13,8.13,8.13-3.65,8.13-8.13-3.65-8.13-8.13-8.13Zm0,14.67c-3.61,0-6.54-2.94-6.54-6.54s2.94-6.54,6.54-6.54,6.54,2.94,6.54,6.54-2.94,6.54-6.54,6.54Z"/>
    <polygon class="cls-1" points="336.33 205.04 336.33 207.73 357.33 207.73 357.33 205.04 355.74 205.04 355.74 206.14 337.92 206.14 337.92 205.04 336.33 205.04"/>
    <path class="cls-1" d="m343.66,147.54l-6.4-6.41-6.4,6.41,6.4,6.41,6.4-6.41Zm-6.4-4.16l4.16,4.16-4.16,4.17-4.16-4.17,4.16-4.16Z"/>
    <path class="cls-1" d="m230.65,180.08c-2.99,0-5.42,2.43-5.42,5.43s2.43,5.43,5.42,5.43,5.43-2.43,5.43-5.43-2.43-5.43-5.43-5.43Zm0,9.27c-2.12,0-3.84-1.72-3.84-3.84s1.72-3.84,3.84-3.84,3.84,1.72,3.84,3.84-1.72,3.84-3.84,3.84Z"/>
    <path class="cls-1" d="m160.87,68.82c-6.97,0-12.64,5.67-12.64,12.64s5.67,12.64,12.64,12.64,12.64-5.67,12.64-12.64-5.67-12.64-12.64-12.64Zm0,23.7c-6.1,0-11.06-4.96-11.06-11.06s4.96-11.06,11.06-11.06,11.06,4.96,11.06,11.06-4.96,11.06-11.06,11.06Z"/>
    <path class="cls-1" d="m230.31,68.82c-6.97,0-12.64,5.67-12.64,12.64s5.67,12.64,12.64,12.64,12.64-5.67,12.64-12.64-5.67-12.64-12.64-12.64Zm0,23.7c-6.1,0-11.06-4.96-11.06-11.06s4.96-11.06,11.06-11.06,11.06,4.96,11.06,11.06-4.96,11.06-11.06,11.06Z"/>
    <path class="cls-1" d="m299.75,68.82c-6.97,0-12.64,5.67-12.64,12.64s5.67,12.64,12.64,12.64,12.64-5.67,12.64-12.64-5.67-12.64-12.64-12.64Zm0,23.7c-6.1,0-11.06-4.96-11.06-11.06s4.96-11.06,11.06-11.06,11.06,4.96,11.06,11.06-4.96,11.06-11.06,11.06Z"/>
    <path class="cls-1" d="m169.18,42.76l-12.22-12.22-12.23,12.22,12.23,12.23,12.22-12.23Zm-12.22-9.98l9.98,9.98-9.98,9.98-9.98-9.98,9.98-9.98Z"/>
    <path class="cls-1" d="m148.23,120.98v32.25h71.98v-32.25h-71.98Zm70.4,30.66h-68.81v-29.08h68.81v29.08Z"/>
    <polygon class="cls-1" points="167.02 99.76 167.02 103.08 294.28 103.08 294.28 99.76 292.7 99.76 292.7 101.49 168.61 101.49 168.61 99.76 167.02 99.76"/>
    <polygon class="cls-1" points="180.69 108.6 180.69 111.94 280.61 111.94 280.61 108.6 279.03 108.6 279.03 110.35 182.28 110.35 182.28 108.6 180.69 108.6"/>
    <polygon class="cls-1" points="252.15 40.1 252.15 43.56 313.62 43.56 313.62 40.1 312.04 40.1 312.04 41.97 253.73 41.97 253.73 40.1 252.15 40.1"/>
    <rect class="cls-1" x="65.18" y="241.75" width="22.26" height="2.09"/>
    <rect class="cls-1" x="333.02" y="244.33" width="11.45" height="2.09"/>
    <path class="cls-1" d="m29.93,132.04v31.68h43.86v-31.68H29.93Zm42.27,30.09H31.51v-28.5h40.69v28.5Z"/>
    <path class="cls-1" d="m29.93,174.04v31.68h43.86v-31.68H29.93Zm42.27,30.09H31.51v-28.5h40.69v28.5Z"/>
    <rect class="cls-1" x="83.78" y="154.69" width="39.85" height="1.59"/>
    <rect class="cls-1" x="83.78" y="162.14" width="39.85" height="1.59"/>
    <rect class="cls-1" x="83.78" y="196.32" width="39.85" height="1.59"/>
    <rect class="cls-1" x="83.78" y="203.77" width="39.85" height="1.59"/>
    <path class="cls-1" d="m469.26,253.27v13.52s1.47,0,1.47,0v-14.99s-22.51,0-22.51,0v-55.11h-2.19v-52.52h-16.76v52.52h-5.56v-24.05h-5.58v-5.76h-8.98v29.81h-6.96l-.02-29.29-3.97-22.29-4,22.6v28.98s-2.26,0-2.26,0v55.08h-19.12s.42-.75.42-.75c.34-.6.51-1.23.51-1.88v-117.67c0-2.11-1.72-3.83-3.83-3.83h-.94V0S91.64.71,91.64.71v67.55H15.45c-2.11,0-3.83,1.72-3.83,3.83v176.58c0,.77.23,1.51.66,2.14l.53.78H1.08S0,254.11,0,254.11v12.68s1.47,0,1.47,0v-13.71h.51l176.63.07v.11h95.55v-.07h.5l194.6.08Zm-38.51-107.64h13.8v12.18h-8.31v1.48h8.31v6.36h-3.53v1.48h3.53v6.15h-8.31v1.48h8.31v7h-3.53v1.48h3.53v6.01h-8.31v1.48h8.31v5.94h-13.8v-51.04Zm-12.62,28.47h4.1v22.57h-4.1v-22.57Zm-7.5-5.76h6.02v4.28h-6.02v-4.28Zm0,5.76h6.02v22.57h-6.02v-22.57Zm-12.43-20.58l2.39,13.34h-4.77l2.38-13.34Zm2.51,14.82v28.33h-5.03l-.02-28.33h5.05Zm-7.3,29.81h28.81v8.14h1.48v-8.14h23.04v53.34h-53.34v-53.34Zm-89.66-61.52v8.86h-73.12v1.59h73.12v17.3h-160.72v-92.3c0-2.11-1.72-3.83-3.83-3.83h-35.37v-6.93h254.22v66.29h-50.46c-2.11,0-3.83,1.72-3.83,3.83v3.6h-73.12v1.59h73.12Zm0,29.34v7.48h-160.72v-7.48h160.72Zm54.29-140.19v33.95H103.81V25.79h254.22Zm-254.22-1.59v-10.8h254.22v10.8H103.81Zm266.1,105c1.24,0,2.25,1.01,2.25,2.25v117.67c0,1.24-1.01,2.25-2.25,2.25h-62.34c-1.24,0-2.25-1.01-2.25-2.25v-117.67c0-1.24,1.01-2.25,2.25-2.25h62.34ZM93.23,2.29h.5s273.66-.7,273.66-.7v126.03s-7.76,0-7.76,0V11.82H102.23v56.44h-9V2.29Zm48.21,246.38c0,1.24-1.01,2.25-2.25,2.25H15.45c-1.24,0-2.25-1.01-2.25-2.25V72.09c0-1.24,1.01-2.25,2.25-2.25h123.74c1.24,0,2.25,1.01,2.25,2.25v176.58Zm37.18,3h-36.85s.55-.8.55-.8c.46-.65.7-1.41.7-2.19v-51.03l35.59-.09v54.11Zm93.96,0h-92.38v-10.68h92.38v10.68Zm0-12.27h-92.38v-41.85h.5s91.88-.23,91.88-.23v42.09Zm-129.56-43.34v-21.01h160.72v20.61h-.5s-160.23.41-160.23.41Zm131.14,1.25l29.58-.07v51.89c0,.63.17,1.26.5,1.85l.42.74h-30.5v-54.41Z"/>
  </g>
</svg>