<?xml version="1.0" encoding="UTF-8"?>
<svg id="Layer_2" data-name="Layer 2" xmlns="http://www.w3.org/2000/svg" viewBox="0 0 311.26 245.63">
  <defs>
    <style>
      .cls-1 {
        fill: #7e909e;
      }
    </style>
  </defs>
  <g id="Layer_1-2" data-name="Layer 1">
    <path class="cls-1" d="m275.37,24.56c0-4.1-.67-7.75-1.99-10.82-3.69-8.6-10.95-13.74-19.42-13.74H81.1c-9.62,0-17.44,7.83-17.44,17.44v45.6h-10.29v1.78h10.29v20.4h-10.29v1.78h10.29v135.86h-10.29v1.78h10.29v20.99h1.78v-20.99h24.99v8.11h137.54v-14.32H90.43v4.43h-24.99V87h24.99v24.68h137.54v-37.95H90.43v11.49h-24.99v-20.4h24.99v6.1h137.54v-14.32H90.43v6.44h-24.99V27.72h19.64v8.57h4.66v-1.78h-2.89v-6.79h26.71v8.57h4.67v-1.78h-2.89v-6.79h26.71v8.57h4.66v-1.78h-2.89v-6.79h26.71v8.57h4.67v-1.78h-2.89v-6.79h26.71v8.57h4.67v-1.78h-2.89v-6.79h26.71v8.57h4.67v-1.78h-2.89v-6.79h23.66v217.91h1.78v-38.99h20.64V24.56ZM92.2,224.64h22.56v-1.78h-22.56v-2.65h133.98v10.76H92.2v-6.33Zm0-137.64h56.71v-1.78h-56.71v-9.71h133.98v34.39H92.2v-22.9Zm0-22.18h56.71v-1.78h-56.71v-4.66h133.98v10.76H92.2v-4.32ZM253.07,25.94h-23.78v-5.47h2.89v-1.78h-4.67v7.25h-26.71v-5.47h2.89v-1.78h-4.67v7.25h-26.71v-5.47h2.89v-1.78h-4.67v7.25h-26.71v-5.47h2.89v-1.78h-4.66v7.25h-26.71v-5.47h2.89v-1.78h-4.67v7.25h-26.71v-5.47h2.89v-1.78h-4.66v7.25h-19.64v-8.5c0-8.64,7.03-15.66,15.67-15.66h171.96v24.16Zm20.53,178.92h-18.75V1.8l.27.02c7.22.45,13.44,5.17,16.63,12.62,1.23,2.86,1.85,6.26,1.85,10.12v180.3Z"/>
    <path class="cls-1" d="m137.47,115.24v31.02h90.49v-31.02h-90.49Zm88.72,29.24h-86.94v-27.46h86.94v27.46Z"/>
    <path class="cls-1" d="m137.47,149.6v31.02h90.49v-31.02h-90.49Zm88.72,29.24h-86.94v-27.46h86.94v27.46Z"/>
    <path class="cls-1" d="m137.47,183.97v31.79h90.49v-31.79h-90.49Zm88.72,30.01h-86.94v-28.23h86.94v28.23Z"/>
    <path class="cls-1" d="m90.43,115.24v100.52h43.72v-100.52h-43.72Zm41.94,98.74h-40.16v-96.96h40.16v96.96Z"/>
    <path class="cls-1" d="m0,57.03c0,4.3,3.49,7.79,7.79,7.79h34.43V29.35c0-4.3-3.49-7.79-7.79-7.79H7.79c-4.29,0-7.79,3.5-7.79,7.79v27.67Zm1.78-27.67c0-3.31,2.7-6.01,6.01-6.01h26.64c3.31,0,6.01,2.7,6.01,6.01v33.69H7.79c-3.31,0-6.01-2.7-6.01-6.01v-27.67Z"/>
    <polygon class="cls-1" points="20.81 33.86 20.86 34.11 20.86 56.26 22.53 56.26 22.53 30.85 20.96 30.85 17.65 34.53 18.85 35.64 20.45 33.86 20.81 33.86"/>
    <path class="cls-1" d="m0,120.45c0,4.3,3.49,7.79,7.79,7.79h26.64c4.29,0,7.79-3.5,7.79-7.79v-35.47H7.79c-4.29,0-7.79,3.5-7.79,7.79v27.67Zm1.78-27.67c0-3.31,2.7-6.01,6.01-6.01h32.65v33.69c0,3.31-2.7,6.01-6.01,6.01H7.79c-3.31,0-6.01-2.7-6.01-6.01v-27.67Z"/>
    <path class="cls-1" d="m21.51,93.54c-4.13,0-7.51,3.31-7.64,7.44h1.64c.13-3.2,2.78-5.76,6.01-5.76s6.01,2.7,6.01,6.01c0,2.19-1.29,4.21-5.11,8.03l-8.91,8.95v1.46h15.7v-2.72h-1.68v1.05h-11.13v-.35l.07-.11,7.13-7.09c3.64-3.64,5.61-6.18,5.61-9.17,0-4.28-3.45-7.73-7.69-7.73Z"/>
    <path class="cls-1" d="m0,217.57c0,4.3,3.49,7.79,7.79,7.79h34.43v-35.47c0-4.29-3.49-7.79-7.79-7.79H7.79c-4.29,0-7.79,3.49-7.79,7.79v27.68Zm1.78-27.68c0-3.31,2.7-6.01,6.01-6.01h26.64c3.31,0,6.01,2.7,6.01,6.01v33.69H7.79c-3.31,0-6.01-2.7-6.01-6.01v-27.68Z"/>
    <path class="cls-1" d="m20.84,217.52c4.62,0,8.37-3.61,8.37-8.05,0-3.12-2.04-5.89-5.2-7.06l-.16-.06v-.36l.12-.07c1.91-1.12,3.1-3.04,3.1-5.02,0-3.38-2.86-6.24-6.24-6.24s-6.09,2.72-6.23,5.99h1.68c.13-2.4,2.12-4.31,4.55-4.31s4.56,2.05,4.56,4.56-1.91,4.42-4.31,4.55v1.69c3.6.12,6.49,2.92,6.49,6.33s-3.02,6.37-6.74,6.37-6.59-2.72-6.73-6.12h-1.64c.14,4.32,3.84,7.8,8.37,7.8Z"/>
    <path class="cls-1" d="m311.26,224.5v-9.65s-.04-175.77-.04-175.77h-.18l-.04-.2L303.43.18l-7.65,38.92h-.18s.04,180.35.04,180.35h0v5.06c0,2.08.82,4.04,2.3,5.51,1.48,1.48,3.44,2.29,5.51,2.29,2.09,0,4.05-.82,5.52-2.29s2.28-3.43,2.28-5.51Zm-7.83-215.07l1.95,9.98h-3.91l1.96-9.98Zm-2.31,11.76h4.61l.04.2,3.46,17.69h-11.63s3.52-17.89,3.52-17.89Zm8.32,19.67v.25l.04,172.85h-12.05s0-.24,0-.24l-.04-172.85h12.05Zm-12.01,174.89h12.05s0,3.69,0,3.69h-12.05s0-3.69,0-3.69Zm6.04,14.78h0c-1.6,0-3.11-.63-4.25-1.77-1.14-1.14-1.77-2.65-1.77-4.25v-3.28h12.05s0,3.28,0,3.28c0,3.32-2.7,6.02-6.02,6.03Z"/>
  </g>
</svg>