<svg width="41" height="41" viewBox="0 0 41 41" fill="none" xmlns="http://www.w3.org/2000/svg">
<g clip-path="url(#clip0_318_50)">
<path d="M20.5911 40.2711C9.73888 40.2711 0.911072 31.4433 0.911072 20.5911C0.911072 9.73894 9.73888 0.911133 20.5911 0.911133C31.4433 0.911133 40.2711 9.73894 40.2711 20.5911C40.2711 31.4433 31.4433 40.2711 20.5911 40.2711ZM20.5911 1.83363C10.2475 1.83363 1.83357 10.2476 1.83357 20.5911C1.83357 30.9334 10.2475 39.3486 20.5911 39.3486C30.9333 39.3486 39.3486 30.9347 39.3486 20.5911C39.3486 10.2476 30.9333 1.83363 20.5911 1.83363Z" fill="#7E909E"/>
<path d="M19.8324 8.99999L20.7215 8.99999L20.7215 31.0947L27.3727 24.4447L28 25.0721L20.2769 32.7964L12.5526 25.0721L13.1824 24.4447L19.8324 31.0947L19.8324 8.99999Z" fill="#7E909E"/>
</g>
<defs>
<clipPath id="clip0_318_50">
<rect width="41" height="41" fill="white"/>
</clipPath>
</defs>
</svg>
