<?xml version="1.0" encoding="UTF-8"?>
<svg id="Layer_2" data-name="Layer 2" xmlns="http://www.w3.org/2000/svg" viewBox="0 0 347.16 267.09">
  <defs>
    <style>
      .cls-1 {
        fill: #efefe4;
      }

      .cls-2 {
        fill: #7e909e;
      }
    </style>
  </defs>
  <g id="Layer_1-2" data-name="Layer 1">
    <g>
      <path class="cls-2" d="m248.31,98.02v10.16h12.39v-10.16h1.67v21.41h-1.67v-9.59h-12.39v9.59h-1.7v-21.41h1.7Z"/>
      <path class="cls-2" d="m284.32,98.02v2.55h-1.7v-.85h-6.75v19.71h-1.67v-19.71h-6.78v.85h-1.67v-2.55h18.58Z"/>
      <path class="cls-2" d="m289.7,97.52h1.35l9.56,20.25,9.59-20.25h1.33l2.9,21.82-1.67.22-2.46-18.35-8.86,18.8h-1.64l-8.83-18.73-2.24,18.17h-2.33v-1.7h.82l2.49-20.22Z"/>
      <path class="cls-2" d="m331.01,117.73v-.82h1.7v2.52h-14.66v-21.41h1.7v19.71h11.26Z"/>
    </g>
    <g>
      <path class="cls-2" d="m18.17,166.13c0-6.21,5.04-11.26,11.26-11.26,2.3,0,4.48.69,6.24,1.89l.5.35v1.55h-1.67v-.63c-1.45-.91-3.22-1.48-5.08-1.48-5.3,0-9.59,4.29-9.59,9.59s4.29,9.55,9.59,9.55c2.08,0,3.94-.6,5.52-1.73l.98,1.39c-2.65,1.89-5.3,2.05-6.5,2.05-6.21,0-11.26-5.04-11.26-11.26Z"/>
      <path class="cls-2" d="m46.86,156.54c-3.28,0-5.65,1.67-5.65,3.37,0,2.49,3.03,3.63,6.37,4.92,3.28,1.26,7.7,2.94,7.7,7.19,0,3.22-4.04,5.36-8.42,5.36-3.53,0-6.88-1.89-8.2-3.15l-.25-.25v-1.39h1.67v.66c1.36,1.14,4.16,2.43,6.78,2.43,3.94,0,6.75-1.86,6.75-3.66,0-2.84-2.84-4.13-6.65-5.61-2.99-1.17-7.44-2.65-7.44-6.5,0-3.03,3.56-5.04,7.35-5.04,2.24,0,5.17.79,7.06,2.62l.25.25v1.36h-1.7v-.63c-1.67-1.42-4.1-1.92-5.61-1.92Z"/>
      <path class="cls-2" d="m66,156.54c-3.28,0-5.65,1.67-5.65,3.37,0,2.49,3.03,3.63,6.37,4.92,3.28,1.26,7.7,2.94,7.7,7.19,0,3.22-4.04,5.36-8.42,5.36-3.53,0-6.88-1.89-8.2-3.15l-.25-.25v-1.39h1.67v.66c1.36,1.14,4.16,2.43,6.78,2.43,3.94,0,6.75-1.86,6.75-3.66,0-2.84-2.84-4.13-6.65-5.61-3-1.17-7.44-2.65-7.44-6.5,0-3.03,3.56-5.04,7.35-5.04,2.24,0,5.17.79,7.06,2.62l.25.25v1.36h-1.7v-.63c-1.67-1.42-4.1-1.92-5.61-1.92Z"/>
    </g>
    <g>
      <path class="cls-2" d="m13.7,29.72c0-1.71-1.07-1.96-1.39-1.96h-.85v-2.27h.85c.28,0,1.39-.22,1.39-1.96v-7.88c0-2.33,1.67-4.23,3.69-4.23v1.71c-1.1,0-1.99,1.1-1.99,2.52v7.88c0,1.55-.63,2.53-1.42,3.09.79.57,1.42,1.55,1.42,3.09v7.88c0,1.42.88,2.56,1.99,2.56v1.67c-2.02,0-3.69-1.89-3.69-4.23v-7.88Z"/>
      <path class="cls-2" d="m38.74,31.52l-8.14-5.8v-1.55l8.2-5.58.91,1.42-7.29,4.95,7.29,5.17-.98,1.39Z"/>
      <path class="cls-2" d="m52.99,20.01l.95-1.42,8.17,5.58v1.55l-8.14,5.8-.98-1.39,7.29-5.17-7.29-4.95Z"/>
      <path class="cls-2" d="m75.34,41.83v-1.67c1.1,0,1.96-1.14,1.96-2.56v-7.88c0-1.55.63-2.53,1.42-3.09-.79-.57-1.42-1.55-1.42-3.09v-7.88c0-1.42-.85-2.52-1.96-2.52v-1.71c2.02,0,3.66,1.89,3.66,4.23v7.88c0,1.74,1.14,1.96,1.42,1.96h.82v2.27h-.82c-.32,0-1.42.25-1.42,1.96v7.88c0,2.33-1.64,4.23-3.66,4.23Z"/>
    </g>
    <rect class="cls-1" x="189.59" y="115.33" width="25.03" height="1.98"/>
    <rect class="cls-2" x="61.74" y="78.82" width="3.49" height="2.23"/>
    <rect class="cls-2" x="70.73" y="78.82" width="11.6" height="2.23"/>
    <rect class="cls-2" x="87.97" y="78.82" width="23.21" height="2.23"/>
    <rect class="cls-2" x="87.97" y="115.2" width="81.79" height="2.23"/>
    <rect class="cls-2" x="87.97" y="95.01" width="34.29" height="2.23"/>
    <rect class="cls-2" x="127.28" y="95.01" width="47.91" height="2.23"/>
    <rect class="cls-2" x="114.08" y="78.82" width="44.46" height="2.23"/>
    <rect class="cls-2" x="167.08" y="78.82" width="11.74" height="2.23"/>
    <rect class="cls-2" x="188.21" y="95.01" width="11.74" height="2.23"/>
    <rect class="cls-2" x="173.54" y="115.2" width="11.74" height="2.23"/>
    <rect class="cls-2" x="103.45" y="101.61" width="18.81" height="2.23"/>
    <rect class="cls-2" x="87.97" y="128.68" width="10.63" height="2.23"/>
    <rect class="cls-2" x="174.09" y="128.39" width="10.63" height="2.23"/>
    <rect class="cls-2" x="187.48" y="128.39" width="29.93" height="2.23"/>
    <rect class="cls-2" x="103.45" y="128.39" width="30.73" height="2.23"/>
    <rect class="cls-2" x="103.45" y="138.36" width="40.06" height="2.23"/>
    <rect class="cls-2" x="103.45" y="164.05" width="35.02" height="2.23"/>
    <rect class="cls-2" x="119.4" y="180.74" width="19.08" height="2.23"/>
    <rect class="cls-2" x="123.78" y="194.11" width="14.69" height="2.23"/>
    <rect class="cls-2" x="142.08" y="180.74" width="32.01" height="2.23"/>
    <rect class="cls-2" x="147.84" y="138.36" width="8.42" height="2.23"/>
    <rect class="cls-2" x="177.16" y="180.74" width="5.21" height="2.23"/>
    <rect class="cls-2" x="163.03" y="138.36" width="24.44" height="2.23"/>
    <rect class="cls-2" x="136.6" y="128.39" width="34.29" height="2.23"/>
    <rect class="cls-2" x="189.59" y="115.2" width="25.03" height="2.23"/>
    <rect class="cls-2" x="188.21" y="78.82" width="14.24" height="2.23"/>
    <rect class="cls-2" x="61.74" y="95.01" width="3.49" height="2.23"/>
    <rect class="cls-2" x="61.74" y="115.2" width="3.49" height="2.23"/>
    <rect class="cls-2" x="61.74" y="128.68" width="3.49" height="2.23"/>
    <path class="cls-2" d="m347.16,126.41v-36.33c0-3.76-3.06-6.82-6.82-6.82h-7.54v-43.08H92.69V6.82c0-3.76-3.06-6.82-6.82-6.82H6.82C3.06,0,0,3.06,0,6.82v36.33c0,3.76,3.06,6.82,6.82,6.82h29.87v90.67H6.82c-3.76,0-6.82,3.06-6.82,6.82v36.33c0,3.76,3.06,6.82,6.82,6.82h29.87v36.18h-5.36v13.36c0,3.08,2.47,5.59,5.5,5.59h172.78l.18.36c.05.1.09.19.14.29l.09.16-2.38,2.38c-2.15,2.15-2.15,5.65,0,7.8l10.35,10.35h9.02l1.18-1.18.17.1c.56.34,1.16.7,1.84,1.08h4.92c-17.63-7.94-28.95-25.37-28.95-44.74,0-27.05,22-49.05,49.05-49.05s49.05,22,49.05,49.05c0,19.37-11.32,36.8-28.95,44.74h4.89l.43-.23c.33-.18.66-.36.99-.56l.17-.1.89.89h9.02l10.35-10.35c2.15-2.15,2.15-5.65,0-7.8l-1.89-1.89.09-.17c.11-.19.2-.39.3-.59.07-.14.14-.28.21-.42l.07-.13h31.75c3.08,0,5.59-2.51,5.59-5.59v-13.36h-5.36v-93.56h7.54c3.76,0,6.82-3.06,6.82-6.82Zm-135.84,122.44c3.71,6.13,8.8,11.54,14.71,15.64l.25.17-1.46,1.46c-.62.62-1.44.96-2.32.96h0c-.88,0-1.7-.34-2.32-.96l-10.96-10.96c-.62-.62-.96-1.44-.96-2.32s.34-1.7.96-2.32l1.94-1.94.17.27Zm89.14,1.67c.62.62.96,1.44.96,2.32s-.34,1.7-.96,2.32l-10.96,10.96c-.62.62-1.44.96-2.32.96s-1.71-.34-2.32-.96l-1.15-1.15.25-.17c5.93-4.03,11.07-9.39,14.86-15.5l.17-.27,1.48,1.48ZM92.69,42.44h237.85v40.81h-8.41v-30.27H49.63v-3.02h43.06v-7.53Zm227.17,12.81v9.04H49.63v-9.04h270.23ZM6.82,47.99c-2.67,0-4.84-2.17-4.84-4.84V6.82C1.98,4.15,4.15,1.98,6.82,1.98h79.05c2.67,0,4.84,2.17,4.84,4.84v41.17H6.82Zm40.54,1.98v90.67h-8.41V49.97h8.41ZM6.82,188.63c-2.67,0-4.84-2.17-4.84-4.84v-36.33c0-2.67,2.17-4.84,4.84-4.84h79.05c2.67,0,4.84,2.17,4.84,4.84v41.17H6.82Zm189.69,27.04v11.11H38.96v-36.18h8.17v25.06h149.38Zm11.85,27.45l.16.35H36.82c-1.78,0-3.23-1.49-3.23-3.33v-11.09h162.91v.83c0,3.04,2.48,5.52,5.52,5.52h3.59l.05.19c.67,2.51,1.57,5.05,2.68,7.54Zm-3.33-10.25l.06.3h-3.06c-1.81,0-3.29-1.47-3.29-3.28v-15.5c0-1.81,1.48-3.29,3.29-3.29h3.16l-.07.3c-.79,3.62-1.19,7.3-1.19,10.96s.37,7.06,1.09,10.51Zm21.28-52.83c-5.93,4.06-11.05,9.44-14.8,15.55l-.17.27-2.12-2.11c-.62-.62-.96-1.44-.96-2.32s.34-1.7.96-2.32l10.96-10.96c.59-.59,1.43-.93,2.32-.93.89,0,1.73.34,2.32.93l1.73,1.72-.25.17Zm41.21-7.46l-.31-.07c-7.02-1.69-14.27-1.88-21.47-.53l-.3.06v-1.08c0-1.81,1.47-3.29,3.29-3.29h15.5c1.81,0,3.29,1.47,3.29,3.29v1.63Zm31.14,22.55c-3.83-6.08-9-11.41-14.96-15.4l-.25-.17,1.42-1.42c.59-.59,1.43-.93,2.32-.93h0c.89,0,1.73.34,2.32.93l10.96,10.96c.62.62.96,1.44.96,2.32s-.34,1.7-.96,2.32l-1.65,1.65-.17-.26Zm1.43,2.41l-.09-.17,2.06-2.06c2.15-2.15,2.15-5.66,0-7.81l-10.96-10.96c-2.08-2.08-5.72-2.08-7.8,0l-1.79,1.78-.17-.1c-3.59-2.13-7.42-3.82-11.41-5.01l-.18-.05v-2.23c0-3.04-2.48-5.52-5.52-5.52h-15.5c-3.04,0-5.52,2.47-5.52,5.52v1.56l-.19.05c-5.09,1.25-9.93,3.25-14.38,5.96l-.17.1-2.06-2.06c-.99-.99-2.41-1.56-3.9-1.56h0c-1.49,0-2.91.57-3.9,1.56l-10.96,10.96c-2.15,2.15-2.15,5.66,0,7.81l2.54,2.54-.09.16c-1.81,3.34-3.25,6.93-4.28,10.65l-.05.18h-3.72c-2.58,0-4.85,1.83-5.39,4.35l-.04.2H49.4v-22.8h43.29v-43.15c0-3.76-3.06-6.82-6.82-6.82h-36.24v-74.07h270.23v16.69h-85.72c-3.76,0-6.82,3.06-6.82,6.82v43.15h92.54v80.18h-6.78l-.04-.2c-.55-2.52-2.81-4.35-5.39-4.35h-2.97l-.05-.18c-1.08-3.88-2.61-7.63-4.55-11.13Zm22.05,18.13v-82.45h8.41v93.56h-17.38v-11.11h8.96Zm-16.82-4.28l-.07-.3h2.41c1.81,0,3.29,1.48,3.29,3.29v15.5c0,1.81-1.47,3.28-3.29,3.28h-2.3l.06-.3c.72-3.45,1.09-6.98,1.09-10.51s-.4-7.34-1.19-10.96Zm30.59,17.66v11.09c0,1.83-1.49,3.33-3.33,3.33h-30.65l.16-.35c1.12-2.51,2.02-5.05,2.68-7.54l.05-.19h2.84c3.04,0,5.52-2.47,5.52-5.52v-.83h22.73Zm-106.59-97.81v-41.17c0-2.67,2.17-4.84,4.84-4.84h106.2c2.67,0,4.84,2.17,4.84,4.84v36.33c0,2.67-2.17,4.84-4.84,4.84h-111.04Z"/>
    <path class="cls-2" d="m256.47,194.66c-15.15,0-27.47,12.32-27.47,27.47s12.32,27.47,27.47,27.47,27.47-12.32,27.47-27.47-12.32-27.47-27.47-27.47Zm7.51,51.56c-2.43.76-4.95,1.14-7.51,1.14s-5.09-.38-7.51-1.14l-1.56-.49h18.15l-1.56.49Zm16.77-17.23c-1.69,5.97-5.51,11.09-10.78,14.44l-.06.04h-26.9l-.06-.04c-5.26-3.35-9.08-8.48-10.77-14.44l-.09-.32h48.75l-.09.32Zm.17-13.13c.52,2.04.79,4.15.79,6.27,0,1.35-.11,2.71-.33,4.07l-.03.21h-49.75l-.03-.21c-.22-1.35-.33-2.72-.33-4.07,0-2.12.27-4.23.79-6.27l.05-.19h48.8l.05.19Zm-.77-2.45h-47.36l.13-.34c3.74-9.67,13.2-16.17,23.55-16.17s19.81,6.5,23.55,16.17l.13.34Z"/>
  </g>
</svg>