<?xml version="1.0" encoding="UTF-8"?>
<svg id="Layer_2" data-name="Layer 2" xmlns="http://www.w3.org/2000/svg" viewBox="0 0 346.66 266.59">
  <defs>
    <style>
      .cls-1 {
        fill: #fff;
      }

      .cls-2 {
        fill: #efefe4;
      }

      .cls-3 {
        fill: #7e909e;
      }
    </style>
  </defs>
  <g id="Layer_1-2" data-name="Layer 1">
    <polygon class="cls-3" points="262 119.06 262 97.89 260.58 97.89 260.58 108.05 247.93 108.05 247.93 97.89 246.48 97.89 246.48 119.06 247.93 119.06 247.93 109.47 260.58 109.47 260.58 119.06 262 119.06"/>
    <polygon class="cls-3" points="283.94 100.2 283.94 97.89 265.62 97.89 265.62 100.2 267.04 100.2 267.04 99.35 274.07 99.35 274.07 119.06 275.49 119.06 275.49 99.35 282.49 99.35 282.49 100.2 283.94 100.2"/>
    <polygon class="cls-3" points="310.17 100.94 312.62 119.17 314.04 118.98 311.17 97.39 310.03 97.39 300.37 117.81 300.25 117.57 290.73 97.39 289.57 97.39 287.07 117.61 286.27 117.61 286.27 119.06 288.37 119.06 290.64 100.57 299.63 119.63 301.11 119.63 310.12 100.52 310.17 100.94"/>
    <polygon class="cls-3" points="317.92 97.89 317.92 119.06 332.34 119.06 332.34 116.79 330.89 116.79 330.89 117.61 319.38 117.61 319.38 97.89 317.92 97.89"/>
    <path class="cls-3" d="m35.8,158.28v-1.36l-.45-.31c-1.8-1.22-3.93-1.87-6.17-1.87-6.14,0-11.13,4.99-11.13,11.13s5,11.13,11.13,11.13c2.3,0,4.49-.68,6.32-1.96l-.83-1.18c-1.6,1.12-3.44,1.68-5.49,1.68-5.36,0-9.71-4.34-9.71-9.68s4.36-9.71,9.71-9.71c1.81,0,3.59.52,5.14,1.5l.06.04v.58h1.42Z"/>
    <path class="cls-3" d="m46.61,177.01c4.08,0,8.3-1.96,8.3-5.24,0-4.15-4.37-5.83-7.56-7.05l-.19-.07c-3.39-1.31-6.32-2.44-6.32-4.98,0-1.69,2.32-3.5,5.77-3.5,1.57,0,4,.51,5.7,1.95l.04.04v.56h1.45v-1.18l-.22-.22c-1.97-1.9-4.99-2.58-6.97-2.58-4.52,0-7.22,2.5-7.22,4.92,0,3.54,3.95,5.07,6.84,6.18l.52.2c3.94,1.53,6.73,2.84,6.73,5.73,0,1.83-2.76,3.78-6.87,3.78-2.58,0-5.41-1.24-6.86-2.46l-.04-.04v-.59h-1.42v1.21l.21.22c1.26,1.2,4.59,3.11,8.11,3.11Z"/>
    <path class="cls-3" d="m65.75,177.01c4.08,0,8.3-1.96,8.3-5.24,0-4.15-4.37-5.83-7.56-7.05l-.19-.07c-3.39-1.31-6.32-2.44-6.32-4.99,0-1.69,2.32-3.5,5.77-3.5,1.57,0,4,.51,5.7,1.95l.04.04v.56h1.45v-1.18l-.22-.22c-1.97-1.9-4.99-2.58-6.97-2.58-4.52,0-7.22,2.5-7.22,4.92,0,3.54,3.95,5.07,6.84,6.18l.52.2c3.94,1.53,6.73,2.84,6.73,5.73,0,1.83-2.76,3.78-6.87,3.78-2.58,0-5.4-1.24-6.86-2.46l-.04-.04v-.59h-1.42v1.21l.21.22c1.27,1.2,4.59,3.11,8.11,3.11Z"/>
    <path class="cls-3" d="m17.02,41.46v-1.42c-1.12-.08-1.99-1.23-1.99-2.68v-7.88c0-1.66-.74-2.54-1.37-2.99l-.14-.1.14-.1c.62-.45,1.37-1.33,1.37-2.99v-7.88c0-1.43.86-2.56,1.99-2.64v-1.46c-1.91.08-3.44,1.89-3.44,4.1v7.88c0,1.65-.99,2.08-1.51,2.08h-.73v2.02h.73c.52,0,1.51.44,1.51,2.08v7.88c0,2.21,1.53,4.02,3.44,4.1Z"/>
    <polygon class="cls-3" points="31.96 24.71 39.29 19.73 38.51 18.52 30.47 23.99 30.47 25.4 38.46 31.1 39.29 29.91 31.96 24.71"/>
    <polygon class="cls-3" points="61.73 25.4 61.73 23.99 53.72 18.51 52.91 19.73 60.24 24.71 60.1 24.81 52.91 29.91 53.74 31.1 61.73 25.4"/>
    <path class="cls-3" d="m78.62,29.47c0-1.65,1.01-2.08,1.55-2.08h.7v-2.02h-.7s-1.55-.02-1.55-2.08v-7.88c0-2.21-1.52-4.02-3.41-4.1v1.46c1.11.08,1.96,1.21,1.96,2.64v7.88c0,1.66.74,2.54,1.37,2.99l.14.1-.14.1c-.62.45-1.37,1.33-1.37,2.99v7.88c0,1.45-.85,2.6-1.96,2.68v1.42c1.89-.08,3.41-1.89,3.41-4.1v-7.88Z"/>
    <g>
      <rect class="cls-2" x="189.34" y="115.08" width="25.03" height="1.98"/>
      <path class="cls-1" d="m214.62,117.31h-25.53v-2.48h25.53v2.48Zm-25.03-.5h24.53v-1.48h-24.53v1.48Z"/>
    </g>
    <rect class="cls-3" x="61.74" y="78.82" width="2.99" height="1.73"/>
    <rect class="cls-3" x="70.73" y="78.82" width="11.1" height="1.73"/>
    <rect class="cls-3" x="87.97" y="78.82" width="22.71" height="1.73"/>
    <rect class="cls-3" x="87.97" y="115.2" width="81.29" height="1.73"/>
    <g>
      <rect class="cls-3" x="87.72" y="94.76" width="34.29" height="2.23"/>
      <path class="cls-1" d="m122.26,97.24h-34.79v-2.73h34.79v2.73Zm-34.29-.5h33.79v-1.73h-33.79v1.73Z"/>
    </g>
    <rect class="cls-3" x="127.28" y="95.01" width="47.41" height="1.73"/>
    <rect class="cls-3" x="114.08" y="78.82" width="43.96" height="1.73"/>
    <rect class="cls-3" x="167.08" y="78.82" width="11.24" height="1.73"/>
    <rect class="cls-3" x="188.21" y="95.01" width="11.24" height="1.73"/>
    <rect class="cls-3" x="173.54" y="115.2" width="11.24" height="1.73"/>
    <rect class="cls-3" x="103.45" y="101.61" width="18.31" height="1.73"/>
    <rect class="cls-3" x="87.97" y="128.68" width="10.13" height="1.73"/>
    <rect class="cls-3" x="174.09" y="128.39" width="10.13" height="1.73"/>
    <rect class="cls-3" x="187.48" y="128.39" width="29.43" height="1.73"/>
    <rect class="cls-3" x="103.45" y="128.39" width="30.23" height="1.73"/>
    <rect class="cls-3" x="103.45" y="138.36" width="39.56" height="1.73"/>
    <rect class="cls-3" x="103.45" y="164.06" width="34.52" height="1.73"/>
    <rect class="cls-3" x="119.4" y="180.74" width="18.58" height="1.73"/>
    <rect class="cls-3" x="123.78" y="194.11" width="14.19" height="1.73"/>
    <rect class="cls-3" x="142.08" y="180.74" width="31.5" height="1.73"/>
    <rect class="cls-3" x="147.84" y="138.36" width="7.92" height="1.73"/>
    <rect class="cls-3" x="177.16" y="180.74" width="4.71" height="1.73"/>
    <rect class="cls-3" x="163.03" y="138.36" width="23.94" height="1.73"/>
    <rect class="cls-3" x="136.6" y="128.39" width="33.79" height="1.73"/>
    <rect class="cls-3" x="189.59" y="115.2" width="24.53" height="1.73"/>
    <rect class="cls-3" x="188.21" y="78.82" width="13.74" height="1.73"/>
    <rect class="cls-3" x="61.74" y="95.01" width="2.99" height="1.73"/>
    <rect class="cls-3" x="61.74" y="115.2" width="2.99" height="1.73"/>
    <rect class="cls-3" x="61.74" y="128.68" width="2.99" height="1.73"/>
    <path class="cls-3" d="m346.66,89.83c0-3.62-2.95-6.57-6.57-6.57h-7.79v-43.08H92.19V6.57c0-3.62-2.95-6.57-6.57-6.57H6.57C2.95,0,0,2.95,0,6.57v36.33c0,3.62,2.95,6.57,6.57,6.57h30.12v91.17H6.57c-3.62,0-6.57,2.95-6.57,6.57v36.33c0,3.62,2.95,6.57,6.57,6.57h30.12v36.68h-5.36v13.11c0,2.95,2.35,5.34,5.25,5.34h172.94l.25.5c.05.1.09.19.14.28l.17.33-2.52,2.52c-2.05,2.05-2.05,5.4,0,7.45l10.28,10.28h2.61c-.25-.15-.49-.33-.7-.55l-10.96-10.96c-.67-.67-1.03-1.55-1.03-2.5s.37-1.83,1.03-2.5l2.17-2.17.33.54c3.69,6.1,8.76,11.48,14.64,15.57l.49.34-1.67,1.67c-.21.21-.45.4-.7.55h2.61l1.25-1.25.34.21c.54.34,1.12.68,1.77,1.04h3.73c-17.09-8.17-28.07-25.51-28.07-44.49,0-27.18,22.12-49.3,49.3-49.3s49.3,22.12,49.3,49.3c0,18.98-10.98,36.31-28.07,44.49h3.69l.37-.2c.33-.18.66-.36.98-.55l.33-.2.96.96h2.61c-.25-.15-.49-.33-.7-.55l-1.36-1.36.5-.34c5.91-4.01,11.02-9.34,14.79-15.42l.33-.54,1.7,1.7c.67.67,1.03,1.55,1.03,2.5s-.37,1.83-1.03,2.5l-10.96,10.96c-.21.21-.45.4-.7.55h2.61l10.28-10.28c2.05-2.05,2.05-5.4,0-7.45l-2.02-2.02.18-.33c.1-.18.19-.37.29-.56l.04-.07c.06-.13.12-.25.19-.38l.14-.27h31.9c2.95,0,5.34-2.4,5.34-5.34v-13.11h-5.36v-94.06h7.79c3.62,0,6.57-2.95,6.57-6.57v-36.33ZM92.19,41.94h238.35v41.31h-8.91v-30.27H49.13v-3.52h43.06v-7.53Zm227.67,12.81v9.54H49.13v-9.54h270.73ZM6.57,47.99c-2.81,0-5.09-2.28-5.09-5.09V6.57C1.48,3.76,3.76,1.48,6.57,1.48h79.05c2.81,0,5.09,2.28,5.09,5.09v41.42H6.57Zm40.79,1.48v91.17h-8.91V49.47h8.91ZM6.57,188.63c-2.81,0-5.09-2.28-5.09-5.09v-36.33c0-2.81,2.28-5.09,5.09-5.09h79.05c2.81,0,5.09,2.28,5.09,5.09v41.42H6.57Zm189.94,26.54v11.61H38.46v-36.68h8.67v25.06h149.38Zm11.82,27.59l.31.7H36.57c-1.92,0-3.48-1.61-3.48-3.58v-11.34h163.41v1.08c0,2.9,2.36,5.27,5.27,5.27h3.79l.1.37c.67,2.5,1.57,5.02,2.67,7.5Zm-3.32-10.2l.12.6h-3.36c-1.95,0-3.54-1.59-3.54-3.53v-15.5c0-1.95,1.59-3.54,3.54-3.54h3.47l-.13.61c-.79,3.6-1.19,7.27-1.19,10.91s.36,7.03,1.08,10.46Zm21.17-52.57c-5.9,4.04-10.99,9.39-14.73,15.48l-.33.54-2.34-2.34c-.67-.67-1.03-1.55-1.03-2.5s.37-1.83,1.03-2.5l10.96-10.96c.63-.64,1.54-1,2.5-1,.95,0,1.86.37,2.5,1l1.94,1.94-.5.34Zm41.31-7.34l-.62-.15c-7.04-1.69-14.23-1.87-21.36-.53l-.59.11v-1.38c0-1.95,1.59-3.54,3.54-3.54h15.5c1.95,0,3.54,1.59,3.54,3.54v1.95Zm30.67,22.37c-3.81-6.05-8.96-11.35-14.88-15.33l-.5-.34,1.64-1.64c.63-.64,1.54-1,2.5-1,.96,0,1.87.37,2.5,1l10.96,10.96c.67.67,1.03,1.55,1.03,2.5s-.37,1.83-1.03,2.5l-1.87,1.87-.33-.53Zm6.06,13.85l-.1-.37c-1.07-3.86-2.59-7.59-4.53-11.08l-.18-.33,2.19-2.19c2.05-2.05,2.05-5.4,0-7.46l-10.96-10.96c-1.98-1.98-5.47-1.98-7.45,0l-1.92,1.92-.33-.2c-3.57-2.12-7.39-3.8-11.35-4.99l-.36-.11v-2.42c0-2.9-2.36-5.27-5.27-5.27h-15.5c-2.91,0-5.27,2.36-5.27,5.27v1.76l-.38.09c-5.06,1.24-9.88,3.24-14.31,5.93l-.34.2-2.2-2.2c-.94-.94-2.3-1.48-3.72-1.48-1.43,0-2.79.54-3.73,1.48l-10.96,10.96c-2.05,2.05-2.05,5.4,0,7.45l2.67,2.67-.18.33c-1.8,3.33-3.24,6.89-4.26,10.6l-.1.37h-3.91c-2.46,0-4.63,1.75-5.15,4.15l-.09.39H48.9v-23.3h43.29v-42.9c0-3.62-2.95-6.57-6.57-6.57h-36.49v-74.57h270.73v17.19h-85.97c-3.62,0-6.57,2.95-6.57,6.57v42.9h92.54v80.68h-7.23l-.09-.39c-.52-2.41-2.68-4.15-5.14-4.15h-3.16Zm17.39,6.31v-82.45h8.91v94.06h-17.88v-11.61h8.96Zm-16.82-3.97l-.13-.61h2.72c1.95,0,3.54,1.59,3.54,3.54v15.5c0,1.95-1.59,3.53-3.54,3.53h-2.61l.12-.6c.72-3.43,1.08-6.95,1.08-10.46s-.4-7.31-1.19-10.91Zm31.09,17.35v11.34c0,1.97-1.6,3.58-3.58,3.58h-31.04l.31-.7c1.11-2.5,2.01-5.02,2.67-7.5l.1-.37h3.03c2.9,0,5.27-2.36,5.27-5.27v-1.08h23.23Zm9.29-102.4c0,2.81-2.28,5.09-5.09,5.09h-111.29v-41.42c0-2.81,2.28-5.09,5.09-5.09h106.2c2.81,0,5.09,2.28,5.09,5.09v36.33Z"/>
    <path class="cls-3" d="m256.22,194.66c-15.01,0-27.22,12.21-27.22,27.22s12.21,27.22,27.22,27.22,27.22-12.21,27.22-27.22-12.21-27.22-27.22-27.22Zm-23.78,18.06c3.77-9.77,13.33-16.33,23.78-16.33s20.01,6.56,23.78,16.33l.26.68h-48.09l.26-.68Zm31.37,33.49c-2.45.77-5,1.15-7.59,1.15s-5.13-.39-7.59-1.15l-3.13-.98h21.43l-3.13.98Zm16.94-17.41c-1.71,6.02-5.57,11.2-10.88,14.58l-.12.08h-27.04l-.12-.08c-5.31-3.38-9.17-8.56-10.88-14.58l-.18-.64h49.41l-.18.64Zm.56-2.4h-50.17l-.07-.42c-.22-1.37-.33-2.75-.33-4.11,0-2.14.27-4.27.8-6.33l.1-.38h49.19l.1.38c.53,2.06.8,4.19.8,6.33,0,1.36-.11,2.74-.33,4.11l-.07.42Z"/>
  </g>
</svg>