<?xml version="1.0" encoding="UTF-8"?>
<svg id="Layer_2" data-name="Layer 2" xmlns="http://www.w3.org/2000/svg" viewBox="0 0 471.24 267.29">
  <defs>
    <style>
      .cls-1 {
        fill: #fff;
      }

      .cls-2 {
        fill: #7e909e;
      }
    </style>
  </defs>
  <g id="Layer_1-2" data-name="Layer 1">
    <path class="cls-2" d="m17.74,78.15v156.21h119.29V78.15H17.74Zm117.2,154.13H19.83v-111.7h115.11v111.7Zm0-113.78H19.83v-38.26h115.11v38.26Z"/>
    <polygon class="cls-2" points="82.49 91.53 82.49 94.7 125.42 94.7 125.42 91.53 123.33 91.53 123.33 92.62 84.57 92.62 84.57 91.53 82.49 91.53"/>
    <polygon class="cls-2" points="82.49 100.36 82.49 103.54 116.14 103.54 116.14 100.36 114.06 100.36 114.06 101.45 84.57 101.45 84.57 100.36 82.49 100.36"/>
    <path class="cls-2" d="m29.53,98l10.82,10.84,10.83-10.84-10.83-10.84-10.82,10.84Zm10.82,7.89l-7.88-7.89,7.88-7.89,7.88,7.89-7.88,7.89Z"/>
    <path class="cls-2" d="m368.44,240.72v-106.51l-58.88.1v106.51l58.88-.11Zm-56.8-104.32l54.71-.1v23.58h-54.71v-23.48Zm0,25.57h54.71v76.67h-.25l-54.46.1v-76.77Z"/>
    <path class="cls-2" d="m322.96,172.74c-4.62,0-8.38,3.76-8.38,8.38s3.76,8.38,8.38,8.38,8.38-3.76,8.38-8.38-3.76-8.38-8.38-8.38Zm0,14.67c-3.47,0-6.29-2.82-6.29-6.29s2.82-6.29,6.29-6.29,6.29,2.82,6.29,6.29-2.82,6.29-6.29,6.29Z"/>
    <polygon class="cls-2" points="336.33 174.32 336.33 177.51 357.83 177.51 357.83 174.32 355.74 174.32 355.74 175.42 338.42 175.42 338.42 174.32 336.33 174.32"/>
    <rect class="cls-2" x="337.63" y="186.67" width="24.62" height="2.09"/>
    <path class="cls-2" d="m322.96,203.46c-4.62,0-8.38,3.76-8.38,8.38s3.76,8.38,8.38,8.38,8.38-3.76,8.38-8.38-3.76-8.38-8.38-8.38Zm0,14.67c-3.47,0-6.29-2.82-6.29-6.29s2.82-6.29,6.29-6.29,6.29,2.82,6.29,6.29-2.82,6.29-6.29,6.29Z"/>
    <polygon class="cls-2" points="336.33 205.04 336.33 208.23 357.83 208.23 357.83 205.04 355.74 205.04 355.74 206.14 338.42 206.14 338.42 205.04 336.33 205.04"/>
    <rect class="cls-2" x="337.63" y="217.39" width="24.62" height="2.09"/>
    <path class="cls-2" d="m337.51,154.56l6.75-6.76-6.75-6.76-6.75,6.76,6.75,6.76Zm3.8-6.76l-3.8,3.81-3.81-3.81,3.81-3.81,3.8,3.81Z"/>
    <path class="cls-2" d="m230.9,179.83c-3.27,0-5.92,2.66-5.92,5.93s2.66,5.93,5.92,5.93,5.93-2.66,5.93-5.93-2.66-5.93-5.93-5.93Zm0,9.27c-1.84,0-3.34-1.5-3.34-3.34s1.5-3.34,3.34-3.34,3.34,1.5,3.34,3.34-1.5,3.34-3.34,3.34Z"/>
    <path class="cls-1" d="m230.9,191.93c-3.4,0-6.17-2.77-6.17-6.18s2.77-6.18,6.17-6.18,6.18,2.77,6.18,6.18-2.77,6.18-6.18,6.18Zm0-11.85c-3.13,0-5.67,2.55-5.67,5.68s2.54,5.68,5.67,5.68,5.68-2.55,5.68-5.68-2.55-5.68-5.68-5.68Zm0,9.27c-1.98,0-3.59-1.61-3.59-3.59s1.61-3.59,3.59-3.59,3.59,1.61,3.59,3.59-1.61,3.59-3.59,3.59Zm0-6.68c-1.7,0-3.09,1.39-3.09,3.09s1.39,3.09,3.09,3.09,3.09-1.39,3.09-3.09-1.39-3.09-3.09-3.09Z"/>
    <path class="cls-2" d="m161.12,68.82c-7.11,0-12.89,5.78-12.89,12.89s5.78,12.89,12.89,12.89,12.89-5.78,12.89-12.89-5.78-12.89-12.89-12.89Zm0,23.7c-5.96,0-10.81-4.85-10.81-10.81s4.85-10.81,10.81-10.81,10.81,4.85,10.81,10.81-4.85,10.81-10.81,10.81Z"/>
    <path class="cls-2" d="m230.56,68.82c-7.11,0-12.89,5.78-12.89,12.89s5.78,12.89,12.89,12.89,12.89-5.78,12.89-12.89-5.78-12.89-12.89-12.89Zm0,23.7c-5.96,0-10.81-4.85-10.81-10.81s4.85-10.81,10.81-10.81,10.81,4.85,10.81,10.81-4.85,10.81-10.81,10.81Z"/>
    <path class="cls-2" d="m300,68.82c-7.11,0-12.89,5.78-12.89,12.89s5.78,12.89,12.89,12.89,12.89-5.78,12.89-12.89-5.78-12.89-12.89-12.89Zm0,23.7c-5.96,0-10.81-4.85-10.81-10.81s4.85-10.81,10.81-10.81,10.81,4.85,10.81,10.81-4.85,10.81-10.81,10.81Z"/>
    <path class="cls-2" d="m157.21,55.6l12.58-12.58-12.58-12.58-12.58,12.58,12.58,12.58Zm9.63-12.58l-9.63,9.63-9.63-9.63,9.63-9.63,9.63,9.63Z"/>
    <path class="cls-2" d="m148.23,120.98v32.75h72.48v-32.75h-72.48Zm70.4,30.66h-68.31v-28.58h68.31v28.58Z"/>
    <polygon class="cls-2" points="292.45 101.24 169.36 101.24 169.36 99.51 166.77 99.51 166.77 103.83 295.03 103.83 295.03 99.51 292.45 99.51 292.45 101.24"/>
    <path class="cls-1" d="m295.28,104.08h-128.75v-4.82h3.09v1.73h122.59v-1.73h3.08v4.82Zm-128.25-.5h127.75v-3.82h-2.08v1.73h-123.59v-1.73h-2.09v3.82Z"/>
    <polygon class="cls-2" points="278.78 110.1 183.03 110.1 183.03 108.35 180.44 108.35 180.44 112.69 281.36 112.69 281.36 108.35 278.78 108.35 278.78 110.1"/>
    <path class="cls-1" d="m281.61,112.94h-101.42v-4.83h3.09v1.75h95.25v-1.75h3.08v4.83Zm-100.92-.5h100.42v-3.83h-2.08v1.75h-96.25v-1.75h-2.09v3.83Z"/>
    <polygon class="cls-2" points="252.15 40.1 252.15 44.06 314.12 44.06 314.12 40.1 312.04 40.1 312.04 41.97 254.23 41.97 254.23 40.1 252.15 40.1"/>
    <rect class="cls-2" x="65.43" y="242" width="22.26" height="2.09"/>
    <rect class="cls-2" x="333.27" y="244.58" width="11.45" height="2.09"/>
    <path class="cls-2" d="m29.68,164.47h44.86v-32.68H29.68v32.68Zm2.59-30.09h39.69v27.5h-39.69v-27.5Z"/>
    <path class="cls-1" d="m74.79,164.72H29.43v-33.18h45.36v33.18Zm-44.86-.5h44.36v-32.18H29.93v32.18Zm42.27-2.09h-40.19v-28h40.19v28Zm-39.69-.5h39.19v-27h-39.19v27Z"/>
    <rect class="cls-2" x="83.78" y="154.69" width="40.35" height="2.09"/>
    <rect class="cls-2" x="83.78" y="162.14" width="40.35" height="2.09"/>
    <path class="cls-2" d="m29.93,173.68v32.18h44.36v-32.18H29.93Zm42.27,30.09h-40.19v-28h40.19v28Z"/>
    <rect class="cls-2" x="83.78" y="196.32" width="40.35" height="2.09"/>
    <rect class="cls-2" x="83.78" y="203.77" width="40.35" height="2.09"/>
    <path class="cls-2" d="m471.23,267.29v-15.49s-22.51,0-22.51,0v-55.11h-2.19v-52.52h-17.26v52.52h-5.06v-24.05h-5.58v-5.76h-9.48v29.81h-6.46l-.02-29.04-4.22-23.72-4.25,23.98v28.78s-2.27,0-2.27,0v55.08h-18.44s.21-.38.21-.38c.36-.64.55-1.31.55-2v-117.67c0-2.25-1.83-4.08-4.08-4.08h-.69V0S91.64.71,91.64.71v67.55H15.7c-2.25,0-4.08,1.83-4.08,4.08v176.58c0,.82.24,1.61.7,2.29l.26.39H1.16S0,254.31,0,254.31v12.98s1.97,0,1.97,0v-13.71h.26l176.38.07v.11h96.05v-.07h.25l194.35.08v13.52s1.97,0,1.97,0ZM93.73,2.79h.25s273.41-.7,273.41-.7v125.53s-7.26,0-7.26,0V11.82H102.23v56.44h-8.5V2.79Zm10.59,21.42v-10.3h253.72v10.3H104.31Zm253.72,2.09v33.45H104.31V26.29h253.72Zm-216.6,222.63c0,1.1-.9,2-2,2H15.7c-1.1,0-2-.9-2-2V72.34c0-1.1.9-2,2-2h123.74c1.1,0,2,.9,2,2v176.58Zm37.18,2.75h-36.11s.28-.41.28-.41c.49-.69.75-1.5.75-2.34v-50.78l35.09-.09v53.61Zm93.96,0h-91.88v-10.18h91.88v10.18Zm0-12.27h-91.88v-41.35h.25s91.63-.23,91.63-.23v41.59Zm-129.06-43.35v-20.51h160.22v20.11h-.25s-159.98.41-159.98.41Zm0-22.6v-6.98h160.22v6.98h-160.22Zm131.14,78.25v-53.9l29.08-.07v51.64c0,.68.18,1.34.53,1.97l.21.37h-29.82Zm29.08-120v3.35h-73.12v2.09h73.12v8.36h-73.12v2.09h73.12v16.8h-160.22v-92.05c0-2.25-1.83-4.08-4.08-4.08h-35.12v-6.43h253.72v65.79h-50.21c-2.25,0-4.08,1.83-4.08,4.08Zm68.42,117.67c0,1.1-.9,2-2,2h-62.34c-1.1,0-2-.9-2-2v-117.67c0-1.1.9-2,2-2h62.34c1.1,0,2,.9,2,2v117.67Zm59.08-103.25h13.3v11.68h-8.31v1.98h8.31v5.86h-3.53v1.98h3.53v5.65h-8.31v1.98h8.31v6.5h-3.53v1.98h3.53v5.51h-8.31v1.98h8.31v5.44h-13.3v-50.54Zm-12.62,28.47h3.6v22.07h-3.6v-22.07Zm-7.5-5.76h5.52v3.78h-5.52v-3.78Zm0,5.76h5.52v22.07h-5.52v-22.07Zm-12.68-19.41l2.09,11.67h-4.17l2.08-11.67Zm2.26,13.65v27.83h-4.53l-.02-27.83h4.55Zm46.03,82.65h-52.84v-52.84h28.31v8.14h1.98v-8.14h22.54v52.84Z"/>
  </g>
</svg>