<?xml version="1.0" encoding="UTF-8"?>
<svg id="Layer_2" data-name="Layer 2" xmlns="http://www.w3.org/2000/svg" viewBox="0 0 310.76 245.13">
  <defs>
    <style>
      .cls-1 {
        fill: #7e909e;
      }
    </style>
  </defs>
  <g id="Layer_1-2" data-name="Layer 1">
    <path class="cls-1" d="m274.87,24.31c0-4.07-.66-7.68-1.97-10.73-3.65-8.51-10.82-13.59-19.19-13.59H80.85c-9.48,0-17.19,7.71-17.19,17.19v45.85h-10.29v1.28h10.29v20.9h-10.29v1.28h10.29v136.36h-10.29v1.28h10.29v20.99h1.28v-20.99h25.49v8.11h137.04v-13.82H90.43v4.43h-25.49V86.5h25.49v24.68h137.04v-37.45H90.43v11.49h-25.49v-20.9h25.49v6.1h137.04v-13.82H90.43v6.44h-25.49V27.22h20.14v8.57h4.16v-1.28h-2.89v-7.29h27.21v8.57h4.17v-1.28h-2.89v-7.29h27.21v8.57h4.16v-1.28h-2.89v-7.29h27.21v8.57h4.17v-1.28h-2.89v-7.29h27.21v8.57h4.17v-1.28h-2.89v-7.29h27.21v8.57h4.17v-1.28h-2.89v-7.29h24.16v217.91h1.28v-38.99h20.64V24.31ZM91.7,224.14h22.56v-1.28h-22.56v-3.15h134.48v11.26H91.7v-6.83Zm0-137.64h56.71v-1.28h-56.71v-10.21h134.48v34.89H91.7v-23.4Zm0-22.18h56.71v-1.28h-56.71v-5.16h134.48v11.26H91.7v-4.82ZM253.07,25.94h-24.28v-5.97h2.89v-1.28h-4.17v7.25h-27.21v-5.97h2.89v-1.28h-4.17v7.25h-27.21v-5.97h2.89v-1.28h-4.17v7.25h-27.21v-5.97h2.89v-1.28h-4.16v7.25h-27.21v-5.97h2.89v-1.28h-4.17v7.25h-27.21v-5.97h2.89v-1.28h-4.16v7.25h-20.14v-8.75c0-8.77,7.14-15.91,15.92-15.91h172.21v24.66Zm20.53,178.92h-19.25V1.28l.53.03c7.32.45,13.62,5.23,16.85,12.78,1.24,2.89,1.87,6.33,1.87,10.22v180.55Z"/>
    <path class="cls-1" d="m137.47,115.24v30.52h89.99v-30.52h-89.99Zm88.72,29.24h-87.44v-27.96h87.44v27.96Z"/>
    <path class="cls-1" d="m137.47,149.6v30.52h89.99v-30.52h-89.99Zm88.72,29.24h-87.44v-27.96h87.44v27.96Z"/>
    <path class="cls-1" d="m137.47,183.97v31.29h89.99v-31.29h-89.99Zm88.72,30.01h-87.44v-28.73h87.44v28.73Z"/>
    <path class="cls-1" d="m90.43,115.24v100.02h43.22v-100.02h-43.22Zm41.94,98.74h-40.66v-97.46h40.66v97.46Z"/>
    <path class="cls-1" d="m0,56.78c0,4.16,3.38,7.54,7.54,7.54h34.18V29.1c0-4.16-3.38-7.54-7.54-7.54H7.54c-4.16,0-7.54,3.38-7.54,7.54v27.67Zm1.28-27.67c0-3.45,2.81-6.26,6.26-6.26h26.64c3.45,0,6.26,2.81,6.26,6.26v33.94H7.54c-3.45,0-6.26-2.81-6.26-6.26v-27.67Z"/>
    <polygon class="cls-1" points="20.77 33.36 20.85 33.81 20.86 55.76 22.03 55.76 22.03 30.85 20.82 30.85 17.75 34.27 18.59 35.04 20.09 33.36 20.77 33.36"/>
    <path class="cls-1" d="m41.71,84.98H7.54c-4.16,0-7.54,3.38-7.54,7.54v27.67c0,4.16,3.38,7.54,7.54,7.54h26.64c4.16,0,7.54-3.38,7.54-7.54v-35.22Zm-1.28,35.22c0,3.45-2.81,6.26-6.26,6.26H7.54c-3.45,0-6.26-2.81-6.26-6.26v-27.67c0-3.45,2.81-6.26,6.26-6.26h32.9v33.94Z"/>
    <path class="cls-1" d="m15.01,100.48c.26-3.25,2.95-5.76,6.24-5.76,3.45,0,6.26,2.81,6.26,6.26,0,2.26-1.31,4.34-5.18,8.21l-8.84,8.88v1.11h15.2v-2.22h-1.18v1.05h-11.63v-.68l.11-.18,7.17-7.13c3.59-3.59,5.53-6.09,5.53-8.99,0-4.12-3.34-7.48-7.44-7.48s-7.12,3.03-7.38,6.94h1.14Z"/>
    <path class="cls-1" d="m0,217.32c0,4.16,3.38,7.54,7.54,7.54h34.18v-35.22c0-4.16-3.38-7.54-7.54-7.54H7.54c-4.16,0-7.54,3.38-7.54,7.54v27.68Zm1.28-27.68c0-3.45,2.81-6.26,6.26-6.26h26.64c3.45,0,6.26,2.81,6.26,6.26v33.94H7.54c-3.45,0-6.26-2.81-6.26-6.26v-27.68Z"/>
    <path class="cls-1" d="m23.68,202.4l-.33-.12v-.68l.25-.15c1.84-1.08,2.98-2.92,2.98-4.8,0-3.25-2.74-5.99-5.99-5.99s-5.7,2.44-5.96,5.49h1.18c.25-2.44,2.31-4.31,4.79-4.31,2.65,0,4.81,2.16,4.81,4.81,0,2.47-1.87,4.53-4.31,4.78v1.22c3.66.24,6.49,3.08,6.49,6.57s-3.13,6.62-6.99,6.62-6.7-2.67-6.97-6.12h-1.14c.27,4.05,3.85,7.3,8.11,7.3,4.48,0,8.12-3.5,8.12-7.8,0-3.01-1.98-5.69-5.03-6.82Z"/>
    <path class="cls-1" d="m310.71,39.08h-.14l-.08-.4-7.32-37.45-7.44,37.87h-.13s.04,180.35.04,180.35h0v4.81c0,2.01.79,3.91,2.23,5.34,1.43,1.43,3.33,2.21,5.33,2.21,2.02,0,3.92-.79,5.34-2.22,1.43-1.43,2.21-3.32,2.21-5.34l-.04-185.17Zm-7.53-31.2l2.25,11.53h-4.52l2.27-11.53Zm-2.52,12.81h5.02l.08.4,3.52,17.99h-12.23s3.62-18.39,3.62-18.39Zm8.78,19.67v.5l.04,173.1h-12.55s0-.49,0-.49l-.04-173.1h12.55Zm-12.51,174.89h12.55s0,4.19,0,4.19h-12.55s0-4.19,0-4.19Zm6.29,15.28h0c-1.67,0-3.24-.65-4.43-1.84-1.19-1.19-1.84-2.76-1.85-4.43v-3.53h12.55s0,3.53,0,3.53c0,3.46-2.81,6.27-6.27,6.28Z"/>
  </g>
</svg>